<svg xmlns="http://www.w3.org/2000/svg" viewBox="0 0 1200 320" role="img" aria-labelledby="title desc">
<title>Governed Coding Upgrade</title><desc>Governed Coding Upgrade repository logo.</desc>
<defs><linearGradient id="g" x1="0" y1="0" x2="1" y2="1"><stop stop-color="#111827"/><stop offset="1" stop-color="#0f766e"/></linearGradient></defs>
<rect width="1200" height="320" rx="36" fill="#f8fafc"/>
<g transform="translate(42 32) scale(.96)"><path d="M128 22 218 55v63c0 57-34 96-90 118-56-22-90-61-90-118V55z" fill="url(#g)"/><path d="M89 82v61m0-41h52m0 0v-20m0 20v28" fill="none" stroke="#ccfbf1" stroke-width="12" stroke-linecap="round" stroke-linejoin="round"/><circle cx="89" cy="77" r="13" fill="#fff"/><circle cx="89" cy="151" r="13" fill="#fff"/><circle cx="141" cy="77" r="13" fill="#fff"/><path d="m127 158 17 17 34-39" fill="none" stroke="#5eead4" stroke-width="13" stroke-linecap="round" stroke-linejoin="round"/></g>
<text x="320" y="142" font-family="Inter,Segoe UI,Arial,sans-serif" font-size="66" font-weight="750" fill="#111827">Governed Coding Upgrade</text>
<text x="324" y="202" font-family="Inter,Segoe UI,Arial,sans-serif" font-size="27" font-weight="500" fill="#475569">Deterministic governance for AI-assisted software changes</text>
<rect x="324" y="235" width="426" height="4" rx="2" fill="#14b8a6"/>
</svg>